# Blender v2.74 (sub 0) OBJ File: ''
# www.blender.org
mtllib street.mtl
o Plane3
v 0.198700 7.501500 7.498100
v 0.198700 7.501500 0.728100
v 0.198700 0.387900 7.498100
v 0.198700 0.387900 0.728100
vt 0.000000 1.000000
vt 0.000000 0.000000
vt 1.000000 0.000000
vt 1.000000 1.000000
vn 1.000000 0.000000 0.000000
usemtl b1Material
s 1
f 1/1/1 3/2/1 4/3/1 2/4/1
o Plane2
v 0.198700 7.501500 -0.728100
v 0.198700 7.501500 -7.498100
v 0.198700 0.387900 -0.728100
v 0.198700 0.387900 -7.498100
vt 0.000000 1.000000
vt 0.000000 0.000000
vt 1.000000 0.000000
vt 1.000000 1.000000
vn 1.000000 0.000000 0.000000
usemtl b1Material
s 1
f 5/5/2 7/6/2 8/7/2 6/8/2
o Plane1
v 10.958000 0.478300 -18.772200
v 10.958000 -0.118900 -18.772200
v 10.958000 0.478300 18.772200
v 10.958000 -0.118900 18.772200
vt -1.500000 25.000000
vt -1.500000 -15.000000
vt 2.500000 -15.000000
vt 2.500000 25.000000
vn 1.000000 0.000000 0.000000
usemtl conc_512x512_jpgMaterial
s 1
f 9/9/3 11/10/3 12/11/3 10/12/3
